<svg width="33" height="22" viewBox="0 0 33 22" fill="none" xmlns="http://www.w3.org/2000/svg">
<path d="M2.18359 11.2227C1.95573 11.3333 1.75391 11.3789 1.57812 11.3594C1.40234 11.3398 1.25911 11.278 1.14844 11.1738C1.04427 11.0632 0.975911 10.9329 0.943359 10.7832C0.917318 10.627 0.936849 10.4772 1.00195 10.334C1.06706 10.1842 1.19076 10.0605 1.37305 9.96289L10.6699 5.08984C11.0605 4.88802 11.4284 4.78711 11.7734 4.78711C12.1185 4.78711 12.4863 4.88802 12.877 5.08984L22.1543 9.96289C22.3366 10.0605 22.4603 10.1842 22.5254 10.334C22.597 10.4772 22.6198 10.627 22.5938 10.7832C22.5677 10.9329 22.4993 11.0632 22.3887 11.1738C22.278 11.278 22.1348 11.3398 21.959 11.3594C21.7832 11.3789 21.5846 11.3333 21.3633 11.2227L12.1152 6.49609C11.8809 6.37891 11.653 6.37891 11.4316 6.49609L2.18359 11.2227ZM5.5625 21.6816C4.89844 21.6816 4.38086 21.4993 4.00977 21.1348C3.63867 20.7702 3.45312 20.2591 3.45312 19.6016V9.97266L4.95703 9.2207V19.2207C4.95703 19.5267 5.03516 19.7611 5.19141 19.9238C5.35417 20.0931 5.58529 20.1777 5.88477 20.1777H17.6523C17.9583 20.1777 18.1895 20.0931 18.3457 19.9238C18.5085 19.7611 18.5898 19.5267 18.5898 19.2207V9.21094L20.0938 10.0312V19.6016C20.0938 20.2591 19.9082 20.7702 19.5371 21.1348C19.166 21.4993 18.6484 21.6816 17.9844 21.6816H5.5625ZM8.92188 20.9102V13.9668C8.92188 13.752 8.98698 13.5794 9.11719 13.4492C9.2474 13.319 9.41992 13.2539 9.63477 13.2539H13.9023C14.1172 13.2539 14.2897 13.319 14.4199 13.4492C14.5501 13.5794 14.6152 13.752 14.6152 13.9668V20.9102H8.92188ZM25.0352 21.6816C24.8333 21.6816 24.6576 21.6068 24.5078 21.457C24.3646 21.3073 24.293 21.1283 24.293 20.9199V1.24219C24.293 0.845052 24.4753 0.568359 24.8398 0.412109C25.0026 0.340495 25.1719 0.285156 25.3477 0.246094C25.5234 0.207031 25.7806 0.1875 26.1191 0.1875C26.6465 0.1875 27.125 0.252604 27.5547 0.382812C27.9844 0.513021 28.4076 0.646484 28.8242 0.783203C29.2474 0.913411 29.7064 0.978516 30.2012 0.978516C30.5658 0.978516 30.8522 0.949219 31.0605 0.890625C31.2689 0.825521 31.4382 0.792969 31.5684 0.792969C31.9004 0.792969 32.0664 0.942708 32.0664 1.24219V5.57812C32.0664 5.97526 31.8874 6.25846 31.5293 6.42773C31.36 6.50586 31.1875 6.56445 31.0117 6.60352C30.8359 6.63607 30.5788 6.65234 30.2402 6.65234C29.7389 6.65234 29.2767 6.58724 28.8535 6.45703C28.4368 6.32682 28.0137 6.19987 27.584 6.07617C27.1608 5.94596 26.6855 5.88086 26.1582 5.88086C26.0801 5.88086 26.0117 5.88411 25.9531 5.89062C25.8945 5.89714 25.8392 5.90365 25.7871 5.91016V20.9199C25.7871 21.1283 25.7122 21.3073 25.5625 21.457C25.4193 21.6068 25.2435 21.6816 25.0352 21.6816ZM1.79297 21.6816C1.59115 21.6816 1.41536 21.6068 1.26562 21.457C1.11589 21.3073 1.04102 21.1283 1.04102 20.9199C1.04102 20.7181 1.11589 20.5423 1.26562 20.3926C1.41536 20.2493 1.59115 20.1777 1.79297 20.1777H29.0098C29.2116 20.1777 29.3841 20.2493 29.5273 20.3926C29.6771 20.5423 29.752 20.7181 29.752 20.9199C29.752 21.1283 29.6771 21.3073 29.5273 21.457C29.3841 21.6068 29.2116 21.6816 29.0098 21.6816H1.79297Z" fill="#E5FF46"/>
</svg>
