<svg width="24" height="18" viewBox="0 0 24 18" fill="none" xmlns="http://www.w3.org/2000/svg">
<path d="M4.91016 13.8809C4.6237 13.8809 4.39258 13.793 4.2168 13.6172C4.04102 13.4414 3.95312 13.2168 3.95312 12.9434V11.1367C3.95312 10.8568 4.04102 10.6322 4.2168 10.4629C4.39258 10.2871 4.6237 10.1992 4.91016 10.1992H7.30273C7.58919 10.1992 7.82031 10.2871 7.99609 10.4629C8.17188 10.6322 8.25977 10.8568 8.25977 11.1367V12.9434C8.25977 13.2168 8.17188 13.4414 7.99609 13.6172C7.82031 13.793 7.58919 13.8809 7.30273 13.8809H4.91016ZM1.31641 6.72266V4.50586H22.6934V6.72266H1.31641ZM3.5918 17.2988C2.56966 17.2988 1.80143 17.0449 1.28711 16.5371C0.779297 16.0358 0.525391 15.2839 0.525391 14.2812V3.64648C0.525391 2.63737 0.779297 1.88216 1.28711 1.38086C1.80143 0.873047 2.56966 0.619141 3.5918 0.619141H20.4082C21.4303 0.619141 22.1953 0.873047 22.7031 1.38086C23.2174 1.88867 23.4746 2.64388 23.4746 3.64648V14.2812C23.4746 15.2839 23.2174 16.0358 22.7031 16.5371C22.1953 17.0449 21.4303 17.2988 20.4082 17.2988H3.5918ZM3.61133 15.7266H20.3887C20.8704 15.7266 21.2415 15.5996 21.502 15.3457C21.7689 15.0853 21.9023 14.7012 21.9023 14.1934V3.73438C21.9023 3.22656 21.7689 2.84245 21.502 2.58203C21.2415 2.32161 20.8704 2.19141 20.3887 2.19141H3.61133C3.12305 2.19141 2.7487 2.32161 2.48828 2.58203C2.22786 2.84245 2.09766 3.22656 2.09766 3.73438V14.1934C2.09766 14.7012 2.22786 15.0853 2.48828 15.3457C2.7487 15.5996 3.12305 15.7266 3.61133 15.7266Z" fill="#E5FF46"/>
</svg>
