<svg width="21" height="22" viewBox="0 0 21 22" fill="none" xmlns="http://www.w3.org/2000/svg">
<path d="M9.51367 21.3887C9.13607 21.3887 8.81055 21.2812 8.53711 21.0664C8.27018 20.8581 8.0944 20.5716 8.00977 20.207L7.58008 18.3809L7.26758 18.2734L5.68555 19.25C5.36654 19.4518 5.03451 19.5299 4.68945 19.4844C4.3444 19.4388 4.03841 19.2826 3.77148 19.0156L2.41406 17.6582C2.14062 17.3913 1.98112 17.0853 1.93555 16.7402C1.89648 16.3952 1.97786 16.0664 2.17969 15.7539L3.16602 14.1719L3.05859 13.8789L1.23242 13.4492C0.874349 13.3646 0.587891 13.1855 0.373047 12.9121C0.158203 12.6387 0.0507812 12.3164 0.0507812 11.9453V10.0117C0.0507812 9.64062 0.154948 9.31836 0.363281 9.04492C0.578125 8.77148 0.867839 8.59245 1.23242 8.50781L3.03906 8.06836L3.15625 7.75586L2.16992 6.17383C1.9681 5.86133 1.88672 5.53581 1.92578 5.19727C1.97135 4.85221 2.13086 4.54297 2.4043 4.26953L3.76172 2.90234C4.02865 2.64193 4.33138 2.48893 4.66992 2.44336C5.01497 2.39779 5.34701 2.47266 5.66602 2.66797L7.24805 3.64453L7.58008 3.51758L8.00977 1.69141C8.0944 1.33333 8.27018 1.04688 8.53711 0.832031C8.81055 0.617188 9.13607 0.509766 9.51367 0.509766H11.4863C11.8639 0.509766 12.1862 0.617188 12.4531 0.832031C12.7266 1.04688 12.9056 1.33333 12.9902 1.69141L13.4102 3.51758L13.7422 3.64453L15.334 2.66797C15.6465 2.47266 15.9753 2.39779 16.3203 2.44336C16.6654 2.48893 16.9681 2.64193 17.2285 2.90234L18.5957 4.26953C18.8626 4.54297 19.0189 4.85221 19.0645 5.19727C19.11 5.53581 19.0319 5.86133 18.8301 6.17383L17.834 7.75586L17.9609 8.06836L19.7676 8.50781C20.1257 8.59245 20.4121 8.77148 20.627 9.04492C20.8418 9.31836 20.9492 9.64062 20.9492 10.0117V11.9453C20.9492 12.3164 20.8418 12.6387 20.627 12.9121C20.4121 13.1855 20.1257 13.3646 19.7676 13.4492L17.9414 13.8789L17.8242 14.1719L18.8203 15.7539C19.0221 16.0664 19.1003 16.3952 19.0547 16.7402C19.0091 17.0853 18.8529 17.3913 18.5859 17.6582L17.2188 19.0156C16.9518 19.2826 16.6458 19.4388 16.3008 19.4844C15.9557 19.5299 15.627 19.4518 15.3145 19.25L13.7227 18.2734L13.4102 18.3809L12.9902 20.207C12.9056 20.5716 12.7266 20.8581 12.4531 21.0664C12.1862 21.2812 11.8639 21.3887 11.4863 21.3887H9.51367ZM9.66992 19.8652H11.3301C11.4928 19.8652 11.584 19.7904 11.6035 19.6406L12.1992 17.2188C12.4987 17.1471 12.7819 17.056 13.0488 16.9453C13.3158 16.8281 13.5534 16.7044 13.7617 16.5742L15.8906 17.8828C16.0143 17.9674 16.138 17.9512 16.2617 17.834L17.4043 16.6816C17.515 16.584 17.528 16.4635 17.4434 16.3203L16.1348 14.2109C16.252 14.0026 16.3659 13.765 16.4766 13.498C16.5938 13.2311 16.6914 12.9479 16.7695 12.6484L19.2012 12.0723C19.3509 12.0462 19.4258 11.9518 19.4258 11.7891V10.1582C19.4258 10.002 19.3509 9.90755 19.2012 9.875L16.7793 9.28906C16.7012 8.97005 16.6003 8.67383 16.4766 8.40039C16.3529 8.12695 16.2454 7.89909 16.1543 7.7168L17.4531 5.60742C17.5443 5.46419 17.5345 5.33724 17.4238 5.22656L16.2715 4.09375C16.1543 3.98958 16.0273 3.97331 15.8906 4.04492L13.7715 5.33398C13.5566 5.2168 13.3158 5.10286 13.0488 4.99219C12.7884 4.875 12.5052 4.77734 12.1992 4.69922L11.6035 2.25781C11.584 2.10807 11.4928 2.0332 11.3301 2.0332H9.66992C9.50716 2.0332 9.41276 2.10807 9.38672 2.25781L8.81055 4.67969C8.51758 4.75781 8.22786 4.85547 7.94141 4.97266C7.66146 5.08984 7.41732 5.20703 7.20898 5.32422L5.09961 4.04492C4.9694 3.97331 4.8457 3.98958 4.72852 4.09375L3.56641 5.22656C3.46224 5.33724 3.45247 5.46419 3.53711 5.60742L4.83594 7.7168C4.7513 7.89909 4.64388 8.12695 4.51367 8.40039C4.38997 8.67383 4.28906 8.97005 4.21094 9.28906L1.79883 9.875C1.64909 9.90755 1.57422 10.002 1.57422 10.1582V11.7891C1.57422 11.9518 1.64909 12.0462 1.79883 12.0723L4.2207 12.6484C4.29883 12.9479 4.39648 13.2311 4.51367 13.498C4.63086 13.765 4.74479 14.0026 4.85547 14.2109L3.54688 16.3203C3.46875 16.4635 3.48177 16.584 3.58594 16.6816L4.73828 17.834C4.86198 17.9512 4.98242 17.9674 5.09961 17.8828L7.22852 16.5742C7.43685 16.7044 7.67448 16.8281 7.94141 16.9453C8.21484 17.056 8.5013 17.1471 8.80078 17.2188L9.38672 19.6406C9.41276 19.7904 9.50716 19.8652 9.66992 19.8652ZM10.5 14.6797C9.81641 14.6797 9.19141 14.5104 8.625 14.1719C8.0651 13.8333 7.61589 13.3841 7.27734 12.8242C6.9388 12.2578 6.76953 11.6328 6.76953 10.9492C6.76953 10.2721 6.9388 9.65365 7.27734 9.09375C7.61589 8.52734 8.0651 8.07812 8.625 7.74609C9.19141 7.40755 9.81641 7.23828 10.5 7.23828C11.1836 7.23828 11.8053 7.40755 12.3652 7.74609C12.9316 8.07812 13.3809 8.52734 13.7129 9.09375C14.0514 9.65365 14.2207 10.2721 14.2207 10.9492C14.2207 11.6328 14.0514 12.2578 13.7129 12.8242C13.3809 13.3906 12.9316 13.8431 12.3652 14.1816C11.8053 14.5137 11.1836 14.6797 10.5 14.6797ZM10.5 13.166C10.8971 13.166 11.2617 13.0651 11.5938 12.8633C11.9258 12.6615 12.1895 12.3945 12.3848 12.0625C12.5866 11.724 12.6875 11.3529 12.6875 10.9492C12.6875 10.5456 12.5866 10.1777 12.3848 9.8457C12.1895 9.51367 11.9258 9.25 11.5938 9.05469C11.2617 8.85286 10.8971 8.75195 10.5 8.75195C10.0964 8.75195 9.72526 8.85286 9.38672 9.05469C9.05469 9.25 8.78776 9.51367 8.58594 9.8457C8.39062 10.1777 8.29297 10.5456 8.29297 10.9492C8.29297 11.3594 8.39062 11.7337 8.58594 12.0723C8.78776 12.4043 9.05469 12.6712 9.38672 12.873C9.72526 13.0684 10.0964 13.166 10.5 13.166Z" fill="#E5FF46"/>
</svg>
